<svg width="48" height="48" xmlns="http://www.w3.org/2000/svg"><g class="layer"><text fill="#00325a" font-family="Cursive" font-size="39" id="svg_7" stroke="#00325A" stroke-dasharray="null" stroke-linecap="round" stroke-linejoin="null" stroke-width="0" text-anchor="middle" transform="matrix(.37869 0 0 .21168 11.833 29.111)" x="48.786" xml:space="preserve" y="-17.681">)</text><text fill="#00325a" font-family="Cursive" font-size="39" id="svg_8" stroke="#00325A" stroke-dasharray="null" stroke-linecap="round" stroke-linejoin="null" stroke-width="0" text-anchor="middle" transform="matrix(.66541 0 0 .3623 13.854 23.343)" x="29.728" xml:space="preserve" y="9.701">)</text><path d="M14 26.81v-6.763c0-.656.474-1.189 1.059-1.189h3.797c.14 0 .278-.032.407-.091a1.04 1.04 0 00.341-.257l3.177-3.872c.667-.75 1.807-.218 1.807.841v15.9c0 1.066-1.154 1.593-1.817.829l-3.166-3.85a1.042 1.042 0 00-.344-.264.973.973 0 00-.414-.095H15.06C14.474 28 14 27.467 14 26.81z" fill="none" id="svg_2" stroke="#00325A" stroke-linecap="round" stroke-linejoin="round" stroke-width="2.118"/><circle cx="24" cy="24" fill="#C4C4C4" fill-opacity=".5" id="svg_3" r="24"/></g></svg>