<svg width="48" height="48" fill="none" xmlns="http://www.w3.org/2000/svg"><path d="M35.177 19.713l-6.353 6.856m6.353 0l-6.353-6.856 6.353 6.856z" stroke="#00325A" stroke-width="2.118" stroke-linecap="round"/><path d="M14 26.522V19.76c0-.656.474-1.188 1.059-1.188h3.797c.14 0 .278-.032.407-.092a1.04 1.04 0 00.341-.257l3.177-3.871c.667-.75 1.807-.218 1.807.84v15.9c0 1.067-1.154 1.594-1.817.83l-3.166-3.85a1.042 1.042 0 00-.344-.265.973.973 0 00-.414-.094H15.06c-.585 0-1.059-.533-1.059-1.19z" stroke="#00325A" stroke-width="2.118" stroke-linecap="round" stroke-linejoin="round"/><circle cx="24" cy="24" r="24" fill="#C4C4C4" fill-opacity=".5"/></svg>