<svg width="120" height="129" viewBox="0 0 120 129" fill="none" xmlns="http://www.w3.org/2000/svg">
<path fill-rule="evenodd" clip-rule="evenodd" d="M70.838 2.45555C56.3698 1.01031 29.2743 -3.27122 17.2203 4.65562C5.05884 12.6531 2.78466 28.0242 0.439934 42.1333C-1.66564 54.8033 4.29472 66.6164 7.57549 79.0472C11.1396 92.5515 3.74394 109.959 14.0893 119.596C24.8846 129.652 51.4374 129.055 66.2198 126.963C80.1663 124.99 84.661 115.012 96.2221 107.162C108.115 99.0869 111.859 109.349 116.162 95.8643C120.469 82.3694 122.03 57.6053 116.162 44.681C111.038 33.3946 108.638 20.5876 98.863 12.7359C88.7574 4.61845 83.8682 3.75717 70.838 2.45555Z" fill="#C5CBF1"/>
<path d="M43.1389 52.7253C43.1389 51.4541 43.6439 50.2349 44.5428 49.336C45.4417 48.4371 46.6609 47.9321 47.9321 47.9321H71.8982C73.1694 47.9321 74.3886 48.4371 75.2875 49.336C76.1864 50.2349 76.6914 51.4541 76.6914 52.7253V76.6914C76.6914 77.9626 76.1864 79.1818 75.2875 80.0807C74.3886 80.9796 73.1694 81.4846 71.8982 81.4846H47.9321C46.6609 81.4846 45.4417 80.9796 44.5428 80.0807C43.6439 79.1818 43.1389 77.9626 43.1389 76.6914V52.7253Z" stroke="#00325A" stroke-width="4.79321" stroke-linecap="round" stroke-linejoin="round"/>
<path d="M52.7253 88.6746H67.105" stroke="#00325A" stroke-width="4.79321" stroke-linecap="round" stroke-linejoin="round"/>
<path d="M52.7253 40.7424H67.105" stroke="#00325A" stroke-width="4.79321" stroke-linecap="round" stroke-linejoin="round"/>
<path d="M52.7253 64.7083L58.1177 69.5015L67.105 59.915" stroke="#00325A" stroke-width="4.79321" stroke-linecap="round" stroke-linejoin="round"/>
</svg>
