<svg width="48" height="48" viewBox="0 0 48 48" fill="none" xmlns="http://www.w3.org/2000/svg">
<path d="M35.1766 19.7129L28.8237 26.5688M35.1766 26.5688L28.8237 19.7129L35.1766 26.5688Z" stroke="#00325A" stroke-width="2.11765" stroke-linecap="round"/>
<path d="M14 26.5223V19.759C14 19.1031 14.4744 18.5706 15.0588 18.5706H18.8558C18.9959 18.5701 19.1345 18.5389 19.2631 18.479C19.3918 18.4191 19.5079 18.3317 19.6044 18.2221L22.7808 14.3508C23.4479 13.6012 24.5883 14.1326 24.5883 15.1918V31.0906C24.5883 32.1578 23.4341 32.6846 22.7713 31.9202L19.6054 28.0706C19.5086 27.9578 19.3914 27.8678 19.261 27.8061C19.1305 27.7443 18.9897 27.7123 18.8473 27.7118H15.0588C14.4744 27.7118 14 27.1793 14 26.5223Z" stroke="#00325A" stroke-width="2.11765" stroke-linecap="round" stroke-linejoin="round"/>
<circle cx="24" cy="24" r="24" fill="#C4C4C4" fill-opacity="0.5"/>
</svg>
