<?xml version="1.0"?>
<svg width="48" height="48" xmlns="http://www.w3.org/2000/svg" xmlns:svg="http://www.w3.org/2000/svg">
 <g class="layer">
  <title>Layer 1</title>
  <text fill="#00325a" font-family="Cursive" font-size="39" id="svg_7" stroke="#00325A" stroke-dasharray="null" stroke-linecap="round" stroke-linejoin="null" stroke-width="0" text-anchor="middle" transform="matrix(0.37869 0 0 0.211677 11.8332 29.1111)" x="48.785705" xml:space="preserve" y="-17.681345">)</text>
  <text fill="#00325a" font-family="Cursive" font-size="39" id="svg_8" stroke="#00325A" stroke-dasharray="null" stroke-linecap="round" stroke-linejoin="null" stroke-width="0" text-anchor="middle" transform="matrix(0.665413 0 0 0.362292 13.8541 23.3428)" x="29.727577" xml:space="preserve" y="9.701157">)</text>
  <path d="m14,26.80981l0,-6.7633c0,-0.6559 0.4744,-1.1884 1.0588,-1.1884l3.797,0c0.1401,-0.0005 0.2787,-0.0317 0.4073,-0.0916c0.1287,-0.0599 0.2448,-0.1473 0.3413,-0.2569l3.1764,-3.8713c0.6671,-0.7496 1.8075,-0.2182 1.8075,0.841l0,15.8988c0,1.0672 -1.1542,1.594 -1.817,0.8296l-3.1659,-3.8496c-0.0968,-0.1128 -0.214,-0.2028 -0.3444,-0.2645c-0.1305,-0.0618 -0.2713,-0.0938 -0.4137,-0.0943l-3.7885,0c-0.5844,0 -1.0588,-0.5325 -1.0588,-1.1895z" fill="none" id="svg_2" stroke="#00325A" stroke-linecap="round" stroke-linejoin="round" stroke-width="2.11765"/>
  <circle cx="24" cy="23.999999" fill="#C4C4C4" fill-opacity="0.5" id="svg_3" r="24"/>
 </g>
</svg>